<svg width="186" height="197" viewBox="0 0 186 197" xmlns="http://www.w3.org/2000/svg" fill="#94a3b8">
<path d="M154.696 196.72C177.264 196.72 185.696 183.824 185.696 167.704C185.696 160.264 183.96 152.08 180.984 144.144L168.336 110.168C162.632 94.5441 148.744 87.352 134.112 94.048L50.2879 132.984C48.0559 133.976 46.0719 134.472 44.3359 134.472C40.1199 134.472 37.1439 131.744 37.1439 127.776C37.1439 124.304 39.3759 120.088 44.8319 116.368L136.096 52.632C144.528 46.68 148.744 38.2481 148.744 29.816C148.744 12.704 135.6 0.800049 119.48 0.800049C104.104 0.800049 87.7359 12.9521 77.5679 31.056L7.38394 156.544C2.67194 165.224 0.439941 172.664 0.439941 178.864C0.439941 190.024 7.63194 196.72 18.5439 196.72C25.7359 196.72 38.6319 192.008 48.0559 184.072L131.136 113.144C139.816 105.704 144.032 101.488 148.248 103.72C153.952 106.696 150.232 113.64 146.016 124.056L134.112 153.568C132.624 157.288 131.136 164.232 131.136 171.424C131.136 183.576 135.848 196.72 154.696 196.72Z"/>
</svg>
