<svg width="178" height="196" viewBox="0 0 178 196" xmlns="http://www.w3.org/2000/svg" stroke="#94a3b8" stroke-width="1" fill="none">
<path d="M45.5359 166.208C31.1519 167.448 24.7039 160.752 24.7039 153.808C24.7039 146.616 30.4079 141.656 45.5359 139.672L134.32 128.76C153.168 126.528 159.616 115.12 159.616 103.216C159.616 94.0401 156.144 82.3841 134.32 75.4401L37.5999 44.6881C25.9439 40.9681 23.9599 36.0081 23.9599 29.8081C23.9599 24.3521 30.6559 14.1841 42.8079 18.4001L144.24 53.8641C165.568 61.3041 176.728 55.3521 177.472 40.4721C178.216 26.3361 171.272 18.4001 158.128 12.2001C143.744 5.50408 106.544 -0.199918 73.3119 0.0480784C40.3279 0.0480784 10.5679 7.48808 10.5679 32.2881C10.5679 41.4641 16.7679 50.3921 27.9279 58.3281L101.832 109.664C111.752 116.608 106.792 125.784 95.3839 121.072L45.7839 100.736C21.4799 90.8161 0.399902 102.72 0.399902 125.288C0.399902 170.424 54.4639 195.968 117.952 195.968C162.344 195.968 177.472 185.8 177.472 170.176C177.472 162.24 173.256 154.8 154.656 156.536L45.5359 166.208Z"/>
</svg>
