<svg width="188" height="197" viewBox="0 0 188 197" xmlns="http://www.w3.org/2000/svg" stroke="#94a3b8" stroke-width="2" fill="none">
<path d="M186.136 165.472C186.136 150.096 173.736 139.928 157.368 139.68L108.512 139.184C99.0879 139.184 95.1199 137.2 95.1199 131.496C95.1199 125.544 99.8319 122.568 105.784 120.584L146.456 106.2C181.424 93.8001 187.624 78.6721 187.624 61.808C187.624 39.4881 172.992 0.800049 111.736 0.800049C36.3439 0.800049 0.879883 65.032 0.879883 149.352C0.879883 184.816 17.9919 196.72 33.3679 196.72C61.6399 196.72 64.6159 174.896 54.9439 152.08L29.6479 92.5601C27.6639 87.8481 26.4239 82.8881 26.4239 78.1761C26.4239 60.5681 40.3119 45.4401 65.8559 45.4401H143.48C161.584 45.4401 171.008 54.864 171.008 67.0161C171.008 79.912 162.328 91.8161 135.792 88.3441L60.3999 78.6721C51.2239 77.4321 46.2639 79.1681 46.0159 85.6161C46.0159 89.0881 48.4959 94.2961 53.9519 101.24L115.208 175.392C128.848 192.008 141.992 196.72 151.912 196.72C177.704 196.72 186.136 181.096 186.136 165.472Z"/>
</svg>
