{
    "asset" : {
        "generator" : "Khronos glTF Blender I/O v1.7.33",
        "version" : "2.0"
    },
    "scene" : 0,
    "scenes" : [
        {
            "name" : "Scene",
            "nodes" : [
                0
            ]
        }
    ],
    "nodes" : [
        {
            "mesh" : 0,
            "name" : "ft_trans"
        }
    ],
    "meshes" : [
        {
            "name" : "ft_trans",
            "primitives" : [
                {
                    "attributes" : {
                        "POSITION" : 0,
                        "NORMAL" : 1,
                        "TEXCOORD_0" : 2
                    },
                    "indices" : 3
                }
            ]
        }
    ],
    "accessors" : [
        {
            "bufferView" : 0,
            "componentType" : 5126,
            "count" : 9750,
            "max" : [
                1.6331167221069336,
                0,
                1.0121753215789795
            ],
            "min" : [
                -1.673701286315918,
                -0.5499999523162842,
                -0.6168830990791321
            ],
            "type" : "VEC3"
        },
        {
            "bufferView" : 1,
            "componentType" : 5126,
            "count" : 9750,
            "type" : "VEC3"
        },
        {
            "bufferView" : 2,
            "componentType" : 5126,
            "count" : 9750,
            "type" : "VEC2"
        },
        {
            "bufferView" : 3,
            "componentType" : 5123,
            "count" : 14556,
            "type" : "SCALAR"
        }
    ],
    "bufferViews" : [
        {
            "buffer" : 0,
            "byteLength" : 117000,
            "byteOffset" : 0
        },
        {
            "buffer" : 0,
            "byteLength" : 117000,
            "byteOffset" : 117000
        },
        {
            "buffer" : 0,
            "byteLength" : 78000,
            "byteOffset" : 234000
        },
        {
            "buffer" : 0,
            "byteLength" : 29112,
            "byteOffset" : 312000
        }
    ],
    "buffers" : [
        {
            "byteLength" : 341112,
            "uri" : "data:application/octet-stream;base64,"
        }
    ]
}
